<mxfile host="www.draw.io" modified="2020-02-10T11:30:33.646Z" agent="Mozilla/5.0 (X11; Linux x86_64; rv:68.0) Gecko/20100101 Firefox/68.0" etag="hyByn8BjAqrBLMmuS05L" version="12.6.6" type="github">
  <diagram id="koSDf-8oMdk8nwm8_pve" name="Page-1">
    <mxGraphModel dx="904" dy="713" grid="1" gridSize="10" guides="1" tooltips="1" connect="1" arrows="1" fold="1" page="1" pageScale="1" pageWidth="850" pageHeight="1100" math="0" shadow="0">
      <root>
        <mxCell id="0"/>
        <mxCell id="1" parent="0"/>
        <mxCell id="7KtO6inaz9QOaPAK6rMS-1" value="" style="whiteSpace=wrap;html=1;aspect=fixed;fillColor=none;" parent="1" vertex="1">
          <mxGeometry x="130" y="20" width="610" height="610" as="geometry"/>
        </mxCell>
        <mxCell id="sqa8HyRBBxrVmal0rR0Y-12" style="edgeStyle=none;rounded=0;orthogonalLoop=1;jettySize=auto;html=1;entryX=0;entryY=0.5;entryDx=0;entryDy=0;endArrow=none;endFill=0;exitX=1;exitY=0.3333333333333333;exitDx=0;exitDy=0;exitPerimeter=0;" parent="1" source="sqa8HyRBBxrVmal0rR0Y-1" target="sqa8HyRBBxrVmal0rR0Y-2" edge="1">
          <mxGeometry relative="1" as="geometry">
            <mxPoint x="110" y="146" as="sourcePoint"/>
          </mxGeometry>
        </mxCell>
        <mxCell id="72a-oPh5Rh1uW49FQSvU-6" style="edgeStyle=none;rounded=0;orthogonalLoop=1;jettySize=auto;html=1;endArrow=none;endFill=0;" parent="1" source="sqa8HyRBBxrVmal0rR0Y-1" target="sqa8HyRBBxrVmal0rR0Y-7" edge="1">
          <mxGeometry relative="1" as="geometry"/>
        </mxCell>
        <mxCell id="72a-oPh5Rh1uW49FQSvU-7" style="edgeStyle=none;rounded=0;orthogonalLoop=1;jettySize=auto;html=1;endArrow=none;endFill=0;entryX=0;entryY=0.5;entryDx=0;entryDy=0;" parent="1" source="sqa8HyRBBxrVmal0rR0Y-1" target="sqa8HyRBBxrVmal0rR0Y-8" edge="1">
          <mxGeometry relative="1" as="geometry"/>
        </mxCell>
        <mxCell id="iXRb-J4ZGRvJYo7AZXzb-8" style="rounded=0;orthogonalLoop=1;jettySize=auto;html=1;entryX=0;entryY=0.5;entryDx=0;entryDy=0;endArrow=none;endFill=0;" edge="1" parent="1" source="sqa8HyRBBxrVmal0rR0Y-1" target="iXRb-J4ZGRvJYo7AZXzb-7">
          <mxGeometry relative="1" as="geometry"/>
        </mxCell>
        <mxCell id="sqa8HyRBBxrVmal0rR0Y-1" value="Admin" style="shape=umlActor;verticalLabelPosition=bottom;labelBackgroundColor=#ffffff;verticalAlign=top;html=1;outlineConnect=0;" parent="1" vertex="1">
          <mxGeometry x="30" y="310" width="20" height="50" as="geometry"/>
        </mxCell>
        <mxCell id="sqa8HyRBBxrVmal0rR0Y-2" value="Importar datos deportivos" style="ellipse;whiteSpace=wrap;html=1;" parent="1" vertex="1">
          <mxGeometry x="310" y="150" width="120" height="80" as="geometry"/>
        </mxCell>
        <mxCell id="sqa8HyRBBxrVmal0rR0Y-15" style="edgeStyle=none;rounded=0;orthogonalLoop=1;jettySize=auto;html=1;endArrow=none;endFill=0;entryX=0.967;entryY=0.313;entryDx=0;entryDy=0;entryPerimeter=0;" parent="1" source="sqa8HyRBBxrVmal0rR0Y-6" target="sqa8HyRBBxrVmal0rR0Y-2" edge="1">
          <mxGeometry relative="1" as="geometry">
            <mxPoint x="390" y="100" as="targetPoint"/>
          </mxGeometry>
        </mxCell>
        <mxCell id="sqa8HyRBBxrVmal0rR0Y-6" value="&lt;div&gt;PÃ¡ginas de &lt;br&gt;&lt;/div&gt;&lt;div&gt;resultados &lt;br&gt;&lt;/div&gt;&lt;div&gt;deportivos&lt;/div&gt;" style="shape=umlActor;verticalLabelPosition=bottom;labelBackgroundColor=#ffffff;verticalAlign=top;html=1;outlineConnect=0;" parent="1" vertex="1">
          <mxGeometry x="770" y="130" width="30" height="60" as="geometry"/>
        </mxCell>
        <mxCell id="sqa8HyRBBxrVmal0rR0Y-7" value="&lt;div&gt;Exportar datos&lt;/div&gt;&lt;div&gt;deportivos&lt;br&gt;&lt;/div&gt;" style="ellipse;whiteSpace=wrap;html=1;" parent="1" vertex="1">
          <mxGeometry x="310" y="240" width="120" height="80" as="geometry"/>
        </mxCell>
        <mxCell id="sqa8HyRBBxrVmal0rR0Y-9" style="rounded=0;orthogonalLoop=1;jettySize=auto;html=1;endArrow=none;endFill=0;entryX=0.5;entryY=1;entryDx=0;entryDy=0;dashed=1;startArrow=classic;startFill=1;" parent="1" source="iXRb-J4ZGRvJYo7AZXzb-7" target="sqa8HyRBBxrVmal0rR0Y-7" edge="1">
          <mxGeometry relative="1" as="geometry">
            <mxPoint x="320" y="270" as="targetPoint"/>
          </mxGeometry>
        </mxCell>
        <mxCell id="sqa8HyRBBxrVmal0rR0Y-8" value="Obtener estadisticas" style="ellipse;whiteSpace=wrap;html=1;" parent="1" vertex="1">
          <mxGeometry x="310" y="470" width="120" height="80" as="geometry"/>
        </mxCell>
        <mxCell id="sqa8HyRBBxrVmal0rR0Y-10" value="&amp;lt;&amp;lt;extends&amp;gt;&amp;gt;" style="text;html=1;strokeColor=none;fillColor=none;align=center;verticalAlign=middle;whiteSpace=wrap;rounded=0;" parent="1" vertex="1">
          <mxGeometry x="390" y="340" width="40" height="20" as="geometry"/>
        </mxCell>
        <mxCell id="iXRb-J4ZGRvJYo7AZXzb-7" value="&lt;div&gt;Consultar datos&lt;/div&gt;&lt;div&gt;deportivos&lt;br&gt;&lt;/div&gt;" style="ellipse;whiteSpace=wrap;html=1;" vertex="1" parent="1">
          <mxGeometry x="295" y="370" width="120" height="80" as="geometry"/>
        </mxCell>
      </root>
    </mxGraphModel>
  </diagram>
</mxfile>
